<?xml version="1.0" standalone="no"?>
<!DOCTYPE svg PUBLIC "-//W3C//DTD SVG 20010904//EN"
 "http://www.w3.org/TR/2001/REC-SVG-20010904/DTD/svg10.dtd">
<svg version="1.0" xmlns="http://www.w3.org/2000/svg"
 width="1219.000000pt" height="662.000000pt" viewBox="0 0 1219.000000 662.000000"
 preserveAspectRatio="xMidYMid meet">
<metadata>
Created by potrace 1.16, written by Peter Selinger 2001-2019
</metadata>
<g transform="translate(0.000000,662.000000) scale(0.100000,-0.100000)"
fill="#000000" stroke="none">
<path d="M100 5135 l0 -1405 1400 0 1400 0 0 1405 0 1405 -1400 0 -1400 0 0
-1405z m1576 1098 c-14 -48 -367 -1702 -376 -1761 -34 -245 118 -385 401 -369
58 4 116 14 147 25 159 61 257 208 321 485 7 27 86 405 177 840 90 435 166
792 168 794 2 2 82 2 178 1 l174 -3 -178 -840 c-98 -462 -192 -883 -210 -935
-68 -205 -123 -297 -253 -426 -82 -81 -105 -97 -216 -152 -68 -34 -162 -73
-209 -86 -250 -70 -662 -75 -919 -10 -289 73 -430 233 -447 509 -12 181 19
359 216 1280 77 358 140 654 140 658 0 4 201 7 446 7 419 0 445 -1 440 -17z"/>
<path d="M5157 5810 c-131 -33 -209 -124 -210 -246 -1 -134 81 -212 236 -222
139 -9 258 48 310 148 25 49 28 63 25 127 -3 62 -7 77 -34 110 -46 58 -111 86
-208 89 -45 2 -98 -1 -119 -6z"/>
<path d="M4092 5245 c-87 -19 -214 -83 -290 -145 -35 -28 -69 -49 -75 -47 -7
3 -23 43 -36 91 l-23 86 -231 -2 -231 -3 -127 -600 c-71 -330 -128 -603 -129
-607 0 -5 130 -8 288 -8 l288 0 92 438 93 437 46 44 c52 48 79 61 124 61 65 0
96 -46 86 -128 -5 -44 -161 -796 -173 -834 -5 -17 13 -18 284 -18 l289 0 42
198 c157 734 164 778 132 864 -55 143 -249 219 -449 173z"/>
<path d="M4865 5208 c-3 -13 -59 -279 -126 -593 -66 -313 -122 -578 -125 -587
-5 -17 13 -18 283 -18 l289 0 129 598 c70 328 130 603 133 610 3 9 -58 12
-287 12 l-291 0 -5 -22z"/>
<path d="M100 1885 l0 -1405 1400 0 1400 0 0 1405 0 1405 -1400 0 -1400 0 0
-1405z m2142 1130 c169 -33 295 -74 453 -147 72 -33 131 -61 133 -62 2 -2
-118 -634 -133 -703 l-5 -23 -351 0 -352 0 6 58 c16 148 28 403 22 457 -14
128 -60 178 -162 177 -201 -2 -375 -293 -498 -837 -50 -219 -95 -593 -95 -785
1 -179 43 -294 123 -331 51 -23 69 -23 137 -3 42 12 67 29 115 77 95 96 165
247 225 484 l27 108 353 3 c195 1 357 -1 361 -5 3 -5 -28 -170 -70 -368 l-77
-360 -39 -22 c-136 -76 -379 -160 -565 -196 -157 -29 -556 -32 -694 -4 -533
108 -765 409 -766 992 0 507 211 969 561 1230 170 127 386 223 582 260 228 43
498 43 709 0z"/>
<path d="M11255 2419 c-234 -26 -457 -117 -587 -238 -134 -125 -185 -250 -176
-431 6 -115 31 -179 101 -255 63 -68 142 -108 331 -171 208 -69 250 -89 303
-147 49 -53 62 -108 43 -186 -28 -118 -109 -193 -214 -199 -77 -4 -121 18
-156 79 -22 39 -25 55 -25 151 l0 108 -247 0 -247 0 -10 -37 c-5 -21 -28 -106
-50 -190 l-39 -152 32 -29 c46 -41 163 -87 286 -113 93 -20 134 -23 350 -23
271 -1 347 9 508 65 221 77 356 212 407 406 18 68 21 237 5 308 -39 172 -161
275 -406 341 -54 14 -139 37 -189 51 -154 41 -215 92 -223 185 -5 68 10 124
48 176 47 65 101 95 176 100 61 4 65 3 98 -30 42 -42 60 -119 54 -230 l-5 -78
233 0 233 0 14 48 c8 26 31 113 52 194 30 115 35 150 26 162 -16 19 -144 80
-211 100 -138 42 -333 55 -515 35z"/>
<path d="M3608 1839 c-101 -12 -244 -49 -344 -89 l-81 -32 -27 -121 c-14 -67
-26 -126 -26 -130 0 -4 92 -7 205 -7 l204 0 10 38 c31 113 107 169 217 160
102 -9 136 -75 114 -226 l-12 -80 -161 -7 c-292 -12 -410 -32 -543 -96 -96
-45 -157 -101 -192 -177 -23 -49 -27 -70 -27 -152 0 -76 5 -105 22 -142 32
-69 94 -131 166 -164 56 -26 72 -29 172 -29 88 0 123 5 176 23 77 27 164 77
232 134 27 22 52 37 56 32 4 -5 18 -46 31 -91 l23 -83 228 0 c126 0 229 2 229
5 0 2 27 132 61 287 77 358 89 432 89 544 0 224 -93 334 -330 389 -89 20 -375
29 -492 14z m222 -636 c-1 -43 -50 -235 -67 -265 -26 -44 -91 -88 -140 -95
-83 -11 -143 45 -143 134 1 118 88 210 222 232 92 15 128 13 128 -6z"/>
<path d="M5664 1836 c-110 -25 -199 -70 -305 -153 -30 -23 -60 -43 -66 -43 -6
0 -21 41 -34 90 l-24 90 -232 0 c-128 0 -233 -4 -233 -8 0 -4 -56 -273 -125
-597 -69 -324 -125 -595 -125 -602 0 -11 57 -13 287 -11 l286 3 94 440 93 440
37 33 c76 67 152 81 193 37 20 -21 24 -36 23 -78 0 -29 -40 -236 -87 -460 -47
-225 -86 -410 -86 -413 0 -2 119 -4 265 -4 146 0 265 4 265 8 0 5 41 201 90
437 99 469 92 450 179 506 89 57 171 27 171 -64 0 -24 -38 -228 -85 -453 -47
-225 -85 -415 -85 -422 0 -10 59 -12 276 -10 l277 3 89 410 c94 435 108 521
96 599 -14 96 -98 187 -201 218 -60 18 -211 15 -277 -5 -80 -25 -183 -79 -260
-138 -38 -28 -71 -52 -75 -53 -3 0 -14 23 -24 52 -36 104 -109 151 -248 157
-55 3 -111 -1 -149 -9z"/>
<path d="M8090 1826 c-126 -28 -205 -66 -297 -142 -28 -24 -56 -44 -61 -44 -5
0 -20 41 -33 90 l-24 90 -230 0 -231 0 -177 -842 c-98 -464 -178 -846 -177
-851 0 -4 129 -6 287 -5 l286 3 69 320 c37 176 70 326 73 334 4 9 24 -6 61
-47 95 -105 237 -158 400 -150 75 4 104 11 157 36 172 80 278 254 344 562 25
120 26 383 0 457 -45 129 -137 191 -293 198 -54 3 -114 -1 -154 -9z m-153
-271 c47 -33 50 -165 7 -372 -26 -125 -87 -263 -133 -301 -29 -23 -64 -33 -94
-26 -35 7 -107 70 -107 93 0 9 24 128 53 264 51 236 55 249 87 282 63 65 143
91 187 60z"/>
<path d="M8860 1816 c0 -2 -41 -192 -90 -423 -97 -448 -106 -520 -75 -612 8
-26 31 -66 49 -87 144 -169 496 -145 707 48 47 43 55 46 63 21 2 -10 14 -51
26 -90 l21 -73 229 0 c127 0 230 2 230 5 0 8 250 1179 256 1198 5 16 -13 17
-285 17 l-289 0 -6 -27 c-167 -777 -186 -856 -203 -875 -37 -43 -105 -78 -149
-78 -34 0 -47 5 -64 28 -19 24 -22 36 -17 97 2 39 41 241 86 450 44 208 81
385 81 392 0 10 -58 13 -285 13 -157 0 -285 -2 -285 -4z"/>
</g>
</svg>
